# xmcd
# 
# Track frame offsets:
#     150
#     18637
#     38000
#     51237
#     63665
#     81665
#     99625
#     114910
#     130560
#     148227
#     163125
# 
# Disc length: 2369
# 
# Revision: 0
# Processed by: cddbd v1.5.2PL0 Copyright (c) Steve Scherf et al.
# Submitted via: fre:ac v1.0.17
# 
DISCID=9c093f0b
DTITLE=Crystal Gayle - THE BEST OF CRYSTAL GAYLE
DYEAR=1989
DGENRE=Country
TTITLE0=ISTILL WANT YOU BACK IN MY LIFE
TTITLE1=CRY
TTITLE2=TURNOING AWAY
TTITLE3=BABY WHAT ABOUT YOU
TTITLE4=STRAIGHT TO THE HEART
TTITLE5='TIL I GAIN CONTROL AGAIN
TTITLE6=ONLY LOVE CAN SAVE ME NOW
TTITLE7=A LONG AND LASTING LOVE
TTITLE8=OUR LOVE IS ON THE FAULTLINE
TTITLE9=I DON'T WANNA LOSE YOUR LOVE
TTITLE10=THE SOUND OF GOODBYE
EXTD=
EXTT0=
EXTT1=
EXTT2=
EXTT3=
EXTT4=
EXTT5=
EXTT6=
EXTT7=
EXTT8=
EXTT9=
EXTT10=
PLAYORDER=
